<svg id="Layer_4" data-name="Layer 4" xmlns="http://www.w3.org/2000/svg" xmlns:xlink="http://www.w3.org/1999/xlink" viewBox="0 0 579.20001 650.40002">
  <defs>
    <linearGradient id="linear-gradient" x1="278.51648" y1="215.0533" x2="545.41758" y2="215.0533" gradientUnits="userSpaceOnUse">
      <stop offset="0" stop-color="#fa7c15"/>
      <stop offset="1" stop-color="#f65251"/>
    </linearGradient>
  </defs>
  <title>weblogoo</title>
  <path d="M484.47163,204.8456c-2.4,2.7-4.9,5.4-7.1,8.3a3.88054,3.88054,0,0,0-.8,3.1c3.7,13.7,10.52838,31.8544,14.32836,45.4544,2.1,7.8,4.32131,15.3482,6.6213,23.04818.8,3.2.2787,5.95182-.32131,9.25181-2.7,5.1-5.76809,10.14286-4.06811,17.14286,2.6,10.4,5.11317,20.75385,7.81318,31.15384,3.8,14.5,8.266,28.91759,12.06594,43.41759,4.6,17.7,8.26045,35.21207,12.56044,52.91208,1.5,6.1,3.74289,13.68022,5.14286,19.78022,2.4,10.1,4.81868,19.66923,7.31868,29.76923A10.35644,10.35644,0,0,1,534.1,498.4c-4.9,3.7-11.28793,7.9-16.8879,10.2-13.2,5.4-26.8,10-40.3,14.4-12.3,4-25.20112,6.40767-37.50111,10.40767-14.5,4.7-28.7,10.5-43.4,14.9-21.6,6.6-44.02858,12.63957-65.72856,19.13957-13.4,4-26.4,9.1-39.7,13.3-22,6.9-44.0824,13.28022-66.18241,19.78022-14.2,4.2-28.84285,7.76887-43.24286,11.3689-1.6.4-4.7-.5-5.3-1.7C170.75714,600.29634,166,588.6,161.7,578.4c-17.7-42.9-29.5-87.8-43.9-131.9-5.6-17-22.1-77.3-25.7-90.1Q84.15,328.05,77,299.6c-5.2-20.6-10.6-41.2-14.9-62-4.5-22-7.9-44.2-11.8-66.2-2.3-13.2,2.3-23.4,14-30.1,6.2-3.5,12.4-7.2,19-9.8,19.8-8,39.8-15.8,59.9-23.2,11.6-4.4,25.04287-11.34618,36.84287-15.34618,2.3-.8,4.4-1.4,6.1,1.2,10.5,15.4,23.46594,22.87033,41.16594,22.07033a111.76341,111.76341,0,0,0,42.9-10.4C284.20879,99.22418,294.1,90,294.3,73.5c.1-7,1.3-9.2264,7.9-11.1264,2.7-.8,6.25385-1.478,8.95387-1.978C320.65385,58.8956,329.5,57.278,339,55.978c14.1-2,28.767-4.93406,42.967-5.93406,13.5-1,26.68574-.16594,40.28572-.06594,7.3,0,2.93406-13.978,2.93406-13.978,1.9.4,3.57224-.24256,5.56527,1.75047,1.52265,4.84294,2.10181,7.29674,3.06549,11.23194l4.74283,18.57807L444.8,90.3c.7,2.6,1.255,4.05162,1.88136,6.32634-1.9,2.4-2.1434,3.54008-3.58134,4.978C414.2,134.70439,385.3,166.9,356.4,200q-41.55,47.55-83,95.1a16.38329,16.38329,0,0,0-3.6,7.5c-3.5,17.1-6.7,34.3-10,51.4-1.9,9.5-4,18.9-5.7,28.4-1.4,7.7,4.6,13.1,12.1,11.1,5.6-1.5,11.1-3.5,16.6-5.4,17.2-6,34.4-12.2,51.7-18.1,7.2-2.5,14.4-4,19.6-10.7,8.9-11.3,18.07581-22.72417,27.57581-33.62417M235.9,510.7c.8-.2,2.8-.6,4.6-1.2,14.3-4.8,28.6-9.8,43-14.6,38.7-12.8,77.3-25.6,116-38.1,25.6-8.2,51.5-15.8,77.2-23.8a62.3174,62.3174,0,0,0,12-4.7,9.7725,9.7725,0,0,0,4.6-12,10.78053,10.78053,0,0,0-11-7,26.614,26.614,0,0,0-4.9,1c-32.5,10.2-65.1,20.2-97.5,30.7-40.6,13.1-81.2,26.6-121.8,39.9-9.5,3.1-19,6-28.3,9.5a9.88974,9.88974,0,0,0-6.4,12.1C224.7,507.5,229.2,510.7,235.9,510.7ZM449.7,387.5a9.868,9.868,0,0,0-9.5-10.3h-.5a41.28077,41.28077,0,0,0-12.6,2.3c-40.4,13.4-80.7,27.1-121.1,40.2-17.8,5.8-36,10.6-54.1,15.8-4.8,1.4-9.7,2.4-14.3,4.4-5.7,2.4-8,7.8-6.3,13s7.3,8.1,13.3,6.8a21.36186,21.36186,0,0,0,3.4-.9c28.9-8.4,57.9-16.4,86.6-25.3,23.5-7.3,46.6-15.7,69.9-23.6,11.8-4,23.6-8,35.4-11.9C446.1,396.1,449.6,392.3,449.7,387.5ZM91.1,217.4c9.7,0,17.7-7.1,17.8-15.9.1-9-8.8-17.7-18.1-17.9-8.9-.1-16.7,7.8-16.7,17C74,209.6,81.9,217.3,91.1,217.4Zm41.6,158.3c7.4.1,16-8.6,16-16.3,0-9.6-7.9-17.7-17.2-17.7-8.9,0-16.9,7.3-17.1,15.6C114.1,365.9,123.7,375.6,132.7,375.7Zm47.2,89.8c0-8.8-8.3-16.5-17.4-16.3-8.6.2-16,7.8-16.2,16.5-.1,9.3,8,17.1,17.8,17,8.7-.1,15.8-7.9,15.8-17.2Zm17.2,49.4a15.68447,15.68447,0,0,0-15.7-15.8h-.1c-9.3,0-17.9,8.2-17.9,17.2,0,8.5,7.9,16.2,16.8,16.4,8.3.09992,16.8-8.90008,16.9-17.8ZM115.3,289.3c-8.9-.1-16.3,6.8-16.4,15.3-.1,9.1,8.1,18.2,16.4,18.2,8.8,0,17.3-8.4,17.4-17.3S124.9,289.3,115.3,289.3ZM392.5,523c10.1,0,17.5-6.3,17.6-15,.1-9.2-8-17.2-17.6-17.2-9.3,0-16.8,6.8-16.8,15.4A17.10121,17.10121,0,0,0,392.5,523Zm-48.1-18.2a16.7511,16.7511,0,0,0-16.7,16.8,16.3919,16.3919,0,0,0,16.1,16.3c9.6.2,17.5-6.8,17.7-15.8,0-9-8-17.2-17.1-17.3Zm94.4,1.7c8.3,0,16-7.6,16-16,.1-8.6-7.9-16.9-16.4-17-8.3-.2-16.9,8.4-17.1,17.1-.1,7.6,8.9,15.9,17.5,15.9Zm45-45.7c-8.9-.1-16.4,7.5-16.5,16.6-.1,9,7.3,16.1,16.7,16.2a15.69094,15.69094,0,0,0,16.2-15.3v-.6c0-8.9-7.7-16.8-16.4-16.9ZM146.9,427.1c10.1,0,17.5-6.7,17.4-15.8-.1-8.5-8.2-16.3-17-16.2a16.39341,16.39341,0,0,0-16.4,16c-.2,9.2,6.6,15.9,16,16Zm99.2,108.6a16.06845,16.06845,0,0,0-16.1,16v.2c.2,8.5,8,16.3,16.4,16.3,8.7,0,16.9-8,16.8-16.5C263.1,543,255.2,535.6,246.1,535.7Zm-30.9,30c0-8.7-7.8-16.6-16.6-16.7-8.5-.1-16.3,7.6-16.3,16.2s8,16,17.2,15.9a15.53525,15.53525,0,0,0,15.7-15.4Zm-97-312a15.1786,15.1786,0,0,0-14.7-15.6h-.1a16.55252,16.55252,0,0,0-17.3,15.8v.4c-.3,9.3,6.2,15.6,16.1,15.8C110.6,270.2,117.9,262.7,118.2,253.7ZM311.7,537a16.10078,16.10078,0,0,0-32.2-.3,16.10268,16.10268,0,0,0,32.2.3Z" fill="#dde3ec"/>
  <path d="M433.13086,46.18681c.4105,1.66657,1.54134,6.08423,1.79714,7.14523-5.50787-2.21319-7.66426-2.632-10.528-2.632-13.6-.1-29.2-.2-42.7.8-14.2,1-28.3,3.6-42.4,5.5-9.6,1.3-19.1,2.8-28.6,4.3a75.07381,75.07381,0,0,0-8.2,1.9c-6.6,1.9-7.9,3.1-7.9,10.1-.2,16.5-9.2,27-23.2,33.6a111.76341,111.76341,0,0,1-42.9,10.4c-17.8.8-33.1-4.7-43.6-20.1-1.8-2.6-3.8-2-6.1-1.2-11.8,4-23.6,7.7-35.3,12.1-20,7.5-40,15.3-59.9,23.2-6.6,2.7-12.8,6.3-19,9.8-11.7,6.7-16.3,16.9-14,30.1,3.9,22.1,7.2,44.3,11.8,66.2,4.3,20.8,9.7,41.4,14.9,62q7.2,28.5,15.1,56.8c3.6,12.8,8,25.4,11.7,38.2,4.9,17.3,8.5,34.9,14,52,14.4,44,26.2,89,43.9,131.9,4.2,10.3,9.4,20.2,14.5,30,.6,1.2,3.7,2.1,5.3,1.7,14.3-3.6,28.7-7.3,42.9-11.4q33.3-9.75,66.3-20.1c13.3-4.2,26.3-9.3,39.7-13.3,21.6-6.5,43.6-12,65.2-18.6,14.6-4.4,28.8-10.2,43.4-14.9,12.3-4,25-7,37.3-11,13.6-4.4,27.1-9,40.3-14.4,5.5-2.3,10.3-4.4,15.2-8.1,3-2.3,4.1-7.8,3.2-11.6-2.5-10.1-5-20.3-7.4-30.4-1.5-6.1-2.8-12.3-4.3-18.4-4.3-17.7-8.5-35.5-13.1-53.1-3.8-14.5-8.2-28.7-12-43.2-2.7-10.4-4.6-21.1-7.2-31.5-1.8-7,3.27547-20.97546,5.97545-26.07546,1.7,3.9,2.7136,7.86661,4.12455,12.17547,1.19914,4.58391,5.9,22.3,6.2,22.9.4,1.7,7.5,28.3,8,30,.1,1,7.3,27.6,7.8,29,.2,1,7.5,25.6,8,27,.2.6,7,24.2,7.4,25.9.3.7,7.1,27,7.2,27.9.5,1.7,5,22.4,5.5,25,.2,2,2.3,7.2,1.4,16.5-1.9,8.1-3.8,10.3-6.4,13.4a48.11567,48.11567,0,0,1-10.7,7.8c-4,2-9.6,4-13.6,6-5,1.9-13.9,5.3-18.6,7.1-.6.2-17.2,5.6-18.9,6.2-.6.1-15,4.2-15.9,4.4-5,1.8-29.7,9.5-35.9,11.7-9.1,3.1-28.3,10.1-29,10.3-1.4.5-19.7,6.2-21,6.6-.7.3-29.9,9.3-30.9,9.4-1.4.5-50.7,14.9-52,15.4-1.3.4-44.6,13.5-45.9,14-1,.2-38.2,11.5-39.9,12.1-.6.1-25.6,6.5-34.6,8.7-7.2,1.8-12.4,1.8-18.2-1.8-6.5-6.5-11.1-16.3-11.2-16.8-3.2-8-6.5-16-9.7-24-.3-1-7.5-20.6-8.1-21.9-.3-1-11.3-33.6-11.8-35-.1-.6-11.8-37.9-12.2-38.9-.7-2-12.2-39.3-12.3-39.9-.5-1.7-15-48.7-15.5-50-.2-1.3-11.6-43.6-12-44.9-.2-1.6-11.6-48.2-12.1-49.9-.2-2-10.2-47.6-10.4-48.9-.5-2-9-44.7-9.5-47-.2-1.3-6.3-43.6-6.5-44.9-.8-9.2-1.7-18,3-26.5,1.4-2.1,3.3-4.7,4.7-6.8a56.96991,56.96991,0,0,1,12.3-11.2,95.01419,95.01419,0,0,1,8.8-5c8.9-4.2,18.9-9.8,25.3-12.7l6.2-2.5c5-1.8,10-3.4,14.9-5.3,11.7-4.5,23.3-9.2,35-13.8,1-.3,7.6-2.9,8.6-3.1,1.4-.5,15.4-5.4,16.4-5.7.7-.4,10.4-3.9,12.7-4.8l2.4-1.2a61.35919,61.35919,0,0,0,5.1-5.1c.3-.4,6.4-6.5,6.9-6.8a89.46518,89.46518,0,0,1,12.1-8.3,77.5875,77.5875,0,0,1,15.8-7.2,98.61214,98.61214,0,0,1,16.8-5.1c7-1.4,22.5-2.1,29-1,2,.2,11.8,2.4,14.4,3.9,3.9,2.2,8.7,3.1,12.6,1.7.6-.1,8.5-2,9.8-2,2.7-.5,8.4-1.2,12.5-2,3.6-.5,9.1-1.4,12.1-1.9,5.6-.7,10.1-1.3,15-1.5,5.2-.3,11.2-1,12.7-1.2,1.6.1,15.3-1,16.9-1.1,9.9-.3,14-.6,23.9-.9,7.6-.2,13.1-.2,20.7,0,8.1.2,10.2-.1,13.6,4.5A42.28731,42.28731,0,0,1,433.13086,46.18681Z" fill="#102537"/>
  <path d="M235.9,510.7c-6.7,0-11.2-3.2-12.3-8.1a9.977,9.977,0,0,1,6.4-12.1c9.3-3.5,18.9-6.4,28.3-9.5,40.6-13.3,81.1-26.8,121.8-39.9,32.4-10.5,65-20.5,97.5-30.7a20.31636,20.31636,0,0,1,4.9-1,10.73579,10.73579,0,0,1,11,7,9.88122,9.88122,0,0,1-4.6,12,72.8753,72.8753,0,0,1-12,4.7c-25.7,8-51.6,15.6-77.2,23.8-38.8,12.5-77.4,25.3-116,38.1-14.4,4.7-28.6,9.7-43,14.6C238.6,510.1,236.7,510.5,235.9,510.7Z" fill="#122739"/>
  <path d="M449.7,387.5c-.1,4.8-3.6,8.7-9.7,10.7-11.8,4-23.6,8-35.4,11.9-23.3,7.9-46.4,16.3-69.9,23.6C306,442.6,277,450.6,248.1,459c-1.1.3-2.2.6-3.4.9-6,1.3-11.6-1.6-13.3-6.8s.5-10.6,6.3-13c4.6-1.9,9.5-3,14.3-4.4,18-5.3,36.2-10,54.1-15.8,40.4-13.2,80.7-26.9,121.1-40.2a41.83718,41.83718,0,0,1,12.6-2.3,9.92322,9.92322,0,0,1,10,9.8C449.7,387.2,449.7,387.3,449.7,387.5Z" fill="#122739"/>
  <path d="M91.1,217.4c-9.1,0-17.1-7.8-17.1-16.7,0-9.2,7.8-17.2,16.7-17,9.3.1,18.2,8.9,18.1,17.9C108.8,210.3,100.8,217.4,91.1,217.4Z" fill="#13283a"/>
  <path d="M132.7,375.7c-8.9-.1-18.6-9.8-18.3-18.4.2-8.2,8.2-15.5,17.1-15.6,9.4,0,17.3,8.1,17.2,17.7C148.6,367,140.1,375.7,132.7,375.7Z" fill="#13273a"/>
  <path d="M179.9,465.5c0,9.3-7.1,17.1-15.8,17.2-9.8.1-17.9-7.6-17.8-17a17.08107,17.08107,0,0,1,16.2-16.5C171.6,449,179.8,456.7,179.9,465.5Z" fill="#14283a"/>
  <path d="M197.1,514.9c0,8.9-8.6,17.9-16.9,17.7-8.9-.2-16.8-7.9-16.8-16.4,0-9,8.6-17.2,17.9-17.2a15.74825,15.74825,0,0,1,15.8,15.7Z" fill="#13283a"/>
  <path d="M115.3,289.3c9.6.1,17.5,7.4,17.4,16.2s-8.6,17.2-17.4,17.3c-8.3,0-16.5-9-16.4-18.2C99,296.1,106.4,289.2,115.3,289.3Z" fill="#13273a"/>
  <path d="M392.5,523a17.18918,17.18918,0,0,1-16.8-16.9c0-8.5,7.5-15.4,16.8-15.4,9.6,0,17.7,8,17.6,17.2C410,516.7,402.6,523,392.5,523Z" fill="#13273a"/>
  <path d="M344.4,504.8c9.1.1,17.2,8.3,17,17.3-.2,8.9-8.1,16-17.7,15.8a16.3262,16.3262,0,0,1-16.1-16.3C327.7,512.4,335.3,504.7,344.4,504.8Z" fill="#14283a"/>
  <path d="M438.8,506.5c-8.6,0-17.6-8.3-17.5-16,.2-8.7,8.8-17.3,17.1-17.1,8.5.2,16.5,8.4,16.4,17C454.8,498.9,447.1,506.6,438.8,506.5Z" fill="#13283a"/>
  <path d="M483.8,460.8c8.7.1,16.5,8,16.5,16.8a15.835,15.835,0,0,1-15.6,16h-.6c-9.5,0-16.8-7.1-16.7-16.2C467.4,468.3,474.9,460.7,483.8,460.8Z" fill="#13283a"/>
  <path d="M146.9,427.1c-9.4,0-16.1-6.8-16-16a16.45962,16.45962,0,0,1,16.4-16c8.8,0,16.9,7.7,17,16.2C164.4,420.4,157,427.1,146.9,427.1Z" fill="#132739"/>
  <path d="M246.1,535.7c9.1-.1,17,7.4,17.1,16,.1,8.5-8.1,16.6-16.8,16.5-8.5,0-16.3-7.8-16.4-16.3a16.06926,16.06926,0,0,1,15.9-16.2Z" fill="#13283a"/>
  <path d="M215.2,565.7a15.53527,15.53527,0,0,1-15.7,15.4c-9.1.1-17.2-7.4-17.2-15.9,0-8.7,7.8-16.4,16.3-16.2C207.4,549.1,215.2,557.1,215.2,565.7Z" fill="#14283a"/>
  <path d="M118.2,253.7c-.2,9.1-7.5,16.5-16.1,16.4-9.9-.1-16.4-6.5-16.1-15.8a16.60539,16.60539,0,0,1,16.9-16.2h.4a15.23738,15.23738,0,0,1,14.9,15.4Z" fill="#14283a"/>
  <path d="M311.7,537a16.10261,16.10261,0,0,1-32.2-.3,16.3631,16.3631,0,0,1,16-15.9A16.596,16.596,0,0,1,311.7,537Z" fill="#14283a"/>
  <polygon points="278.516 300.33 314.385 325.2 343.396 358.7 545.418 132.066 536.451 100.418 503.747 75.426 477.374 71.407 278.516 300.33" fill="url(#linear-gradient)"/>
  <path d="M271.1,362.1c1.7-7.6,3.1-14,4.5-20.5,1.8-8.6,3.4-17.3,5.2-25.9,1.1-5.4,2.5-6.1,7.4-3,6.9,4.3,13.9,8.6,20,14,7.9,7,15.1,15,22.3,22.8,4.8,5.3,4.2,6.8-2.4,9-13.7,4.7-27.3,9.6-40.8,14.5-3,1.1-4.6.8-6.5-2.1-1.5-2.4-4.4-3.9-6.6-5.9C273,364,271.9,362.9,271.1,362.1Z" fill="#d8dee7"/>
  <path d="M518.9,171.1c-2,1.9-4.1,3.8-5.9,5.8q-62.743,71.8509-130.3,149.2c-9.5,10.9-19.4,21.5-28.3,32.9-5.3,6.7-12.4,8.2-19.6,10.7-17.3,5.9-34.5,12.1-51.7,18.1-5.5,1.9-11,3.9-16.6,5.4-7.5,2-13.5-3.4-12.1-11.1,1.7-9.5,3.9-18.9,5.7-28.4,3.4-17.1,6.5-34.3,10-51.4a17.44894,17.44894,0,0,1,3.6-7.5c27.6-31.8,55.3-63.4,83-95.1q43.35-49.65,86.7-99.2c2-2.3,3.9-4.8,5.8-7.3.6-.7,1.3-1.4,1.9-2.1l2.4-2.8s4.7-5.4,7-7.9c1.6-1.9,3.3-3.7,4.9-5.6a21.91188,21.91188,0,0,1,7.12857-6.52637C482.48243,65.2077,487.9,65.4,497.4,68.5c5.6,1.9,6.6,1.9,11.3,3.4,0,0,5.3,2.3,8.5,4a40.43928,40.43928,0,0,1,9,6.3,162.85886,162.85886,0,0,1,10.8,12.6s4.9,5.9,6.8,11.3c0,0,2.1,5.9,2.8,7.7,3.1,8.4,3.5,17.6-.5,24.8,0,0-8.9,11.1-13.5,16.3l.2.2-.2-.2C528.3,160.4,523.6,165.7,518.9,171.1ZM465.2,217c5.5-6.2,10.9-12.4,16.4-18.6l17.6-20.1c2.5-2.7,5-5.3,7.4-8,10.1-11.5,20.1-23,30.3-34.4,3.7-4.2,4.7-8.8,2.7-13.9a103.25391,103.25391,0,0,0-6.5-13.9c-10.4-17.9-26.3-28-46.2-32.3-4.7-1-9.2-.1-12.6,4-6.2,7.2-12.6,14.1-18.8,21.3-6.3,7.3-12.4,14.7-18.7,22-5.5,6.4-11,12.7-16.5,19.1-4.7,5.3-9.3,10.7-14,16-5,5.7-10,11.3-15,17-6.1,7-12.2,13.9-18.3,20.9l-20,23c-7.8,8.9-15.5,17.9-23.3,26.8a44.82258,44.82258,0,0,0-4,3.6c-12.3,14-24.5,28-36.8,41.9-4.1,4.6-3.8,8.6,1.6,11.7,20,11.4,37.2,26,50.5,44.9,2.7,3.9,6.4,4,9.6.4,7.8-8.6,15.5-17.4,23.1-26.1,6-6.9,11.8-13.9,17.7-20.8,8.2-9.4,16.5-18.9,24.7-28.3,6.7-7.7,13.3-15.3,20-23q8.7-9.9,17.4-19.8ZM271.1,362.1c.8.7,1.9,1.9,3.1,3,2.2,1.9,5,3.5,6.6,5.9,1.9,2.9,3.5,3.2,6.5,2.1,13.6-5,27.2-9.8,40.8-14.5,6.6-2.3,7.2-3.8,2.4-9-7.2-7.8-14.4-15.7-22.3-22.8-6-5.4-13.1-9.7-20-14-5-3.1-6.3-2.4-7.4,3-1.8,8.6-3.4,17.3-5.2,25.9C274.3,348.1,272.8,354.6,271.1,362.1Z" fill="#102537"/>
  <path d="M433.18078,46.38925s3.1995,12.5541,2.52767,9.99989,10.94416,40.13343,10.94416,40.13343l-3.66537,4.65371-14.35537-53.951Z" fill="#102537"/>
  <polygon points="477.209 216.396 497.827 285.252 494.445 294.119 473.154 221.209 477.209 216.396" fill="#102537"/>
</svg>
